<svg xmlns="http://www.w3.org/2000/svg" version="1.1" xmlns:xlink="http://www.w3.org/1999/xlink" xmlns:svgjs="http://svgjs.dev/svgjs" viewBox="0 0 15.701868065871462 3.45512418863957"><g transform="matrix(1,0,0,1,2.4329075387868944,0.6288168131885232)"><rect width="15.701868065871462" height="3.45512418863957" x="-2.4329075387868944" y="-0.6288168131885232" fill="#ffffff"></rect><g><path d=" M 0.79425 0.07724999999999982 Q 0.9195 0.1439999999999998 0.987 0.2639999999999998 Q 1.0545 0.3839999999999998 1.0545 0.5384999999999999 Q 1.0545 0.6914999999999998 0.9862500000000001 0.8114999999999999 Q 0.918 0.9314999999999998 0.7927500000000001 0.9997499999999998 Q 0.6675 1.0679999999999998 0.5025000000000001 1.0679999999999998 L 0.084 1.0679999999999998 L 0.084 0.010499999999999732 L 0.5025000000000001 0.010499999999999732 Q 0.669 0.010499999999999732 0.79425 0.07724999999999982 Z M 0.6825 0.7379999999999998 Q 0.756 0.6674999999999998 0.756 0.5384999999999999 Q 0.756 0.4079999999999998 0.6825 0.33674999999999977 Q 0.609 0.26549999999999985 0.48 0.26549999999999985 L 0.378 0.26549999999999985 L 0.378 0.8084999999999998 L 0.48 0.8084999999999998 Q 0.609 0.8084999999999998 0.6825 0.7379999999999998 Z M 1.2007280273437502 0.41849999999999987 Q 1.2479780273437502 0.32099999999999984 1.3297280273437502 0.26849999999999985 Q 1.4114780273437502 0.21599999999999986 1.5119780273437502 0.21599999999999986 Q 1.5989780273437502 0.21599999999999986 1.66197802734375 0.25049999999999983 Q 1.72497802734375 0.2849999999999998 1.75947802734375 0.3434999999999998 L 1.75947802734375 0.2264999999999998 L 2.05347802734375 0.2264999999999998 L 2.05347802734375 1.0679999999999998 L 1.75947802734375 1.0679999999999998 L 1.75947802734375 0.9509999999999998 Q 1.72497802734375 1.0094999999999998 1.6612280273437503 1.0439999999999998 Q 1.59747802734375 1.0784999999999998 1.5119780273437502 1.0784999999999998 Q 1.4114780273437502 1.0784999999999998 1.3297280273437502 1.0259999999999998 Q 1.2479780273437502 0.9734999999999998 1.2007280273437502 0.8752499999999999 Q 1.1534780273437502 0.7769999999999999 1.1534780273437502 0.6464999999999999 Q 1.1534780273437502 0.5159999999999998 1.2007280273437502 0.41849999999999987 Z M 1.7152280273437501 0.5189999999999998 Q 1.6709780273437502 0.4724999999999998 1.60647802734375 0.4724999999999998 Q 1.5404780273437502 0.4724999999999998 1.49697802734375 0.5182499999999999 Q 1.4534780273437502 0.5639999999999998 1.4534780273437502 0.6464999999999999 Q 1.4534780273437502 0.7274999999999998 1.49697802734375 0.7747499999999998 Q 1.5404780273437502 0.8219999999999998 1.60647802734375 0.8219999999999998 Q 1.6709780273437502 0.8219999999999998 1.7152280273437501 0.7754999999999999 Q 1.75947802734375 0.7289999999999999 1.75947802734375 0.6464999999999999 Q 1.75947802734375 0.5654999999999998 1.7152280273437501 0.5189999999999998 Z M 2.732967041015625 0.8174999999999999 L 2.732967041015625 1.0679999999999998 L 2.605467041015625 1.0679999999999998 Q 2.2829670410156253 1.0679999999999998 2.2829670410156253 0.7484999999999998 L 2.2829670410156253 0.47099999999999986 L 2.1794670410156254 0.47099999999999986 L 2.1794670410156254 0.2264999999999998 L 2.2829670410156253 0.2264999999999998 L 2.2829670410156253 0.022499999999999742 L 2.5784670410156254 0.022499999999999742 L 2.5784670410156254 0.2264999999999998 L 2.731467041015625 0.2264999999999998 L 2.731467041015625 0.47099999999999986 L 2.5784670410156254 0.47099999999999986 L 2.5784670410156254 0.7529999999999999 Q 2.5784670410156254 0.7874999999999999 2.594217041015625 0.8024999999999998 Q 2.6099670410156253 0.8174999999999999 2.6474670410156254 0.8174999999999999 L 2.732967041015625 0.8174999999999999 Z M 2.8821562500000004 0.41849999999999987 Q 2.9294062500000004 0.32099999999999984 3.0111562500000004 0.26849999999999985 Q 3.0929062500000004 0.21599999999999986 3.1934062500000002 0.21599999999999986 Q 3.2804062500000004 0.21599999999999986 3.34340625 0.25049999999999983 Q 3.4064062500000003 0.2849999999999998 3.4409062500000003 0.3434999999999998 L 3.4409062500000003 0.2264999999999998 L 3.7349062500000003 0.2264999999999998 L 3.7349062500000003 1.0679999999999998 L 3.4409062500000003 1.0679999999999998 L 3.4409062500000003 0.9509999999999998 Q 3.4064062500000003 1.0094999999999998 3.3426562500000006 1.0439999999999998 Q 3.2789062500000004 1.0784999999999998 3.1934062500000002 1.0784999999999998 Q 3.0929062500000004 1.0784999999999998 3.0111562500000004 1.0259999999999998 Q 2.9294062500000004 0.9734999999999998 2.8821562500000004 0.8752499999999999 Q 2.8349062500000004 0.7769999999999999 2.8349062500000004 0.6464999999999999 Q 2.8349062500000004 0.5159999999999998 2.8821562500000004 0.41849999999999987 Z M 3.3966562500000004 0.5189999999999998 Q 3.3524062500000005 0.4724999999999998 3.2879062500000003 0.4724999999999998 Q 3.2219062500000004 0.4724999999999998 3.1784062500000005 0.5182499999999999 Q 3.1349062500000002 0.5639999999999998 3.1349062500000002 0.6464999999999999 Q 3.1349062500000002 0.7274999999999998 3.1784062500000005 0.7747499999999998 Q 3.2219062500000004 0.8219999999999998 3.2879062500000003 0.8219999999999998 Q 3.3524062500000005 0.8219999999999998 3.3966562500000004 0.7754999999999999 Q 3.4409062500000003 0.7289999999999999 3.4409062500000003 0.6464999999999999 Q 3.4409062500000003 0.5654999999999998 3.3966562500000004 0.5189999999999998 Z M 3.9471452636718753 0.2587499999999998 Q 4.012395263671875 0.13649999999999984 4.132395263671875 0.06824999999999981 Q 4.252395263671875 -2.220446049250313e-16 4.408395263671876 -2.220446049250313e-16 Q 4.6063952636718755 -2.220446049250313e-16 4.741395263671875 0.10574999999999979 Q 4.876395263671876 0.2114999999999998 4.915395263671876 0.3929999999999998 L 4.598895263671875 0.3929999999999998 Q 4.570395263671876 0.33299999999999985 4.520145263671876 0.30149999999999977 Q 4.469895263671876 0.2699999999999998 4.403895263671876 0.2699999999999998 Q 4.3018952636718755 0.2699999999999998 4.241145263671876 0.3427499999999998 Q 4.180395263671875 0.41549999999999987 4.180395263671875 0.5369999999999998 Q 4.180395263671875 0.6599999999999998 4.241145263671876 0.7327499999999998 Q 4.3018952636718755 0.8054999999999999 4.403895263671876 0.8054999999999999 Q 4.469895263671876 0.8054999999999999 4.520145263671876 0.7739999999999998 Q 4.570395263671876 0.7424999999999998 4.598895263671875 0.6824999999999999 L 4.915395263671876 0.6824999999999999 Q 4.876395263671876 0.8639999999999999 4.741395263671875 0.9697499999999999 Q 4.6063952636718755 1.0755 4.408395263671876 1.0755 Q 4.252395263671875 1.0755 4.132395263671875 1.0072499999999998 Q 4.012395263671875 0.9389999999999998 3.9471452636718753 0.8167499999999999 Q 3.8818952636718755 0.6944999999999999 3.8818952636718755 0.5369999999999998 Q 3.8818952636718755 0.3809999999999998 3.9471452636718753 0.2587499999999998 Z M 6.049388671875001 1.0679999999999998 L 5.755388671875001 1.0679999999999998 L 5.363888671875001 0.47699999999999987 L 5.363888671875001 1.0679999999999998 L 5.069888671875001 1.0679999999999998 L 5.069888671875001 0.010499999999999732 L 5.363888671875001 0.010499999999999732 L 5.755388671875001 0.6089999999999998 L 5.755388671875001 0.010499999999999732 L 6.049388671875001 0.010499999999999732 L 6.049388671875001 1.0679999999999998 Z M 6.526319091796877 0.010499999999999732 L 6.526319091796877 1.0679999999999998 L 6.232319091796876 1.0679999999999998 L 6.232319091796876 0.010499999999999732 L 6.526319091796877 0.010499999999999732 Z M 7.003294189453126 0.8429999999999999 L 7.331794189453126 0.8429999999999999 L 7.331794189453126 1.0679999999999998 L 6.709294189453126 1.0679999999999998 L 6.709294189453126 0.010499999999999732 L 7.003294189453126 0.010499999999999732 L 7.003294189453126 0.8429999999999999 Z" fill="#337551" fill-rule="nonzero"></path></g><g><path d=" M 0.10022727272727272 1.5962590909090908 L 0.10022727272727272 1.8962590909090908 Q 0.10022727272727272 1.9671681818181816 0.13397727272727272 2.0012590909090906 Q 0.16772727272727272 2.0353499999999998 0.22636363636363635 2.0353499999999998 Q 0.285 2.0353499999999998 0.3180681818181818 2.0016 Q 0.35113636363636364 1.9678499999999999 0.35113636363636364 1.8962590909090908 L 0.35113636363636364 1.5962590909090908 L 0.3988636363636363 1.5962590909090908 L 0.3988636363636363 1.8955772727272726 Q 0.3988636363636363 1.9862590909090907 0.3507954545454545 2.031940909090909 Q 0.3027272727272727 2.0776227272727272 0.22568181818181815 2.0776227272727272 Q 0.14863636363636362 2.0776227272727272 0.1005681818181818 2.031940909090909 Q 0.0525 1.9862590909090907 0.0525 1.8955772727272726 L 0.0525 1.5962590909090908 L 0.10022727272727272 1.5962590909090908 Z M 0.7956475275213067 1.7350090909090907 Q 0.8379202547940341 1.7762590909090907 0.8379202547940341 1.8546681818181816 L 0.8379202547940341 2.07285 L 0.7908748002485795 2.07285 L 0.7908748002485795 1.8601227272727272 Q 0.7908748002485795 1.799440909090909 0.7605338911576704 1.7673954545454544 Q 0.7301929820667613 1.73535 0.6776929820667613 1.73535 Q 0.623829345703125 1.73535 0.5917838911576704 1.769440909090909 Q 0.5597384366122159 1.803531818181818 0.5597384366122159 1.8696681818181817 L 0.5597384366122159 2.07285 L 0.5120111638849432 2.07285 L 0.5120111638849432 1.7005772727272725 L 0.5597384366122159 1.7005772727272725 L 0.5597384366122159 1.7639863636363635 Q 0.5774657093394886 1.7298954545454546 0.6108748002485795 1.7118272727272728 Q 0.6442838911576704 1.693759090909091 0.6865566184303977 1.693759090909091 Q 0.7533748002485795 1.693759090909091 0.7956475275213067 1.7350090909090907 Z M 1.1450673606178976 1.7854636363636363 Q 1.1679082697088066 1.7421681818181818 1.2084764515269883 1.7186454545454544 Q 1.2490446333451701 1.6951227272727272 1.3001809969815339 1.6951227272727272 Q 1.353362815163352 1.6951227272727272 1.3918855424360794 1.7196681818181818 Q 1.4304082697088065 1.7442136363636362 1.447453724254261 1.7823954545454543 L 1.447453724254261 1.7005772727272725 L 1.4951809969815337 1.7005772727272725 L 1.4951809969815337 2.07285 L 1.447453724254261 2.07285 L 1.447453724254261 1.9903499999999998 Q 1.4297264515269883 2.028531818181818 1.3912037242542612 2.0534181818181816 Q 1.3526809969815339 2.0783045454545452 1.2994991787997157 2.0783045454545452 Q 1.2490446333451701 2.0783045454545452 1.2084764515269883 2.054440909090909 Q 1.1679082697088066 2.0305772727272724 1.1450673606178976 1.986940909090909 Q 1.1222264515269884 1.9433045454545452 1.1222264515269884 1.886031818181818 Q 1.1222264515269884 1.8287590909090907 1.1450673606178976 1.7854636363636363 Z M 1.4290446333451703 1.8076227272727272 Q 1.4106355424360792 1.773531818181818 1.3789309969815338 1.7551227272727272 Q 1.3472264515269883 1.7367136363636362 1.3090446333451702 1.7367136363636362 Q 1.2694991787997156 1.7367136363636362 1.2381355424360794 1.754440909090909 Q 1.206771906072443 1.7721681818181816 1.188703724254261 1.8059181818181818 Q 1.1706355424360793 1.8396681818181817 1.1706355424360793 1.886031818181818 Q 1.1706355424360793 1.9317136363636362 1.188703724254261 1.9661454545454544 Q 1.206771906072443 2.0005772727272726 1.2381355424360794 2.0186454545454544 Q 1.2694991787997156 2.0367136363636362 1.3090446333451702 2.0367136363636362 Q 1.3472264515269883 2.0367136363636362 1.3789309969815338 2.018304545454545 Q 1.4106355424360792 1.9998954545454544 1.4290446333451703 1.9658045454545454 Q 1.447453724254261 1.9317136363636362 1.447453724254261 1.8867136363636363 Q 1.447453724254261 1.8417136363636362 1.4290446333451703 1.8076227272727272 Z M 1.894718128551136 1.7350090909090907 Q 1.9369908558238633 1.7762590909090907 1.9369908558238633 1.8546681818181816 L 1.9369908558238633 2.07285 L 1.8899454012784087 2.07285 L 1.8899454012784087 1.8601227272727272 Q 1.8899454012784087 1.799440909090909 1.8596044921874997 1.7673954545454544 Q 1.8292635830965907 1.73535 1.7767635830965907 1.73535 Q 1.7228999467329542 1.73535 1.6908544921874997 1.769440909090909 Q 1.6588090376420452 1.803531818181818 1.6588090376420452 1.8696681818181817 L 1.6588090376420452 2.07285 L 1.6110817649147724 2.07285 L 1.6110817649147724 1.7005772727272725 L 1.6588090376420452 1.7005772727272725 L 1.6588090376420452 1.7639863636363635 Q 1.6765363103693178 1.7298954545454546 1.7099454012784088 1.7118272727272728 Q 1.7433544921874997 1.693759090909091 1.785627219460227 1.693759090909091 Q 1.8524454012784088 1.693759090909091 1.894718128551136 1.7350090909090907 Z M 2.050510586825284 1.7854636363636363 Q 2.073351495916193 1.7421681818181818 2.113919677734375 1.7186454545454544 Q 2.1544878595525567 1.6951227272727272 2.20562422318892 1.6951227272727272 Q 2.2588060413707383 1.6951227272727272 2.2973287686434656 1.7196681818181818 Q 2.335851495916193 1.7442136363636362 2.3528969504616475 1.7823954545454543 L 2.3528969504616475 1.7005772727272725 L 2.4006242231889203 1.7005772727272725 L 2.4006242231889203 2.07285 L 2.3528969504616475 2.07285 L 2.3528969504616475 1.9903499999999998 Q 2.335169677734375 2.028531818181818 2.2966469504616476 2.0534181818181816 Q 2.2581242231889203 2.0783045454545452 2.204942405007102 2.0783045454545452 Q 2.1544878595525567 2.0783045454545452 2.113919677734375 2.054440909090909 Q 2.073351495916193 2.0305772727272724 2.050510586825284 1.986940909090909 Q 2.027669677734375 1.9433045454545452 2.027669677734375 1.886031818181818 Q 2.027669677734375 1.8287590909090907 2.050510586825284 1.7854636363636363 Z M 2.3344878595525564 1.8076227272727272 Q 2.316078768643466 1.773531818181818 2.2843742231889204 1.7551227272727272 Q 2.252669677734375 1.7367136363636362 2.214487859552557 1.7367136363636362 Q 2.1749424050071022 1.7367136363636362 2.1435787686434655 1.754440909090909 Q 2.1122151322798293 1.7721681818181816 2.0941469504616474 1.8059181818181818 Q 2.0760787686434656 1.8396681818181817 2.0760787686434656 1.886031818181818 Q 2.0760787686434656 1.9317136363636362 2.0941469504616474 1.9661454545454544 Q 2.1122151322798293 2.0005772727272726 2.1435787686434655 2.0186454545454544 Q 2.1749424050071022 2.0367136363636362 2.214487859552557 2.0367136363636362 Q 2.252669677734375 2.0367136363636362 2.2843742231889204 2.018304545454545 Q 2.316078768643466 1.9998954545454544 2.3344878595525564 1.9658045454545454 Q 2.3528969504616475 1.9317136363636362 2.3528969504616475 1.8867136363636363 Q 2.3528969504616475 1.8417136363636362 2.3344878595525564 1.8076227272727272 Z M 2.5642522638494314 1.5683045454545455 L 2.5642522638494314 2.07285 L 2.516524991122159 2.07285 L 2.516524991122159 1.5683045454545455 L 2.5642522638494314 1.5683045454545455 Z M 2.9862587668678975 1.7005772727272725 L 2.7653496759588068 2.2480772727272726 L 2.7155769486860795 2.2480772727272726 L 2.7878496759588067 2.0708045454545454 L 2.635122403231534 1.7005772727272725 L 2.6876224032315337 1.7005772727272725 L 2.8144405850497156 2.018304545454545 L 2.9371678577769886 1.7005772727272725 L 2.9862587668678975 1.7005772727272725 Z M 3.0813607510653407 2.048645454545454 Q 3.040792569247159 2.0189863636363636 3.0360198419744315 1.9678499999999999 L 3.085110751065341 1.9678499999999999 Q 3.0885198419744317 1.9992136363636361 3.1147698419744314 2.0186454545454544 Q 3.1410198419744315 2.0380772727272727 3.1853380237926134 2.0380772727272727 Q 3.2242016601562495 2.0380772727272727 3.2463607510653407 2.0196681818181816 Q 3.2685198419744315 2.0012590909090906 3.2685198419744315 1.9739863636363635 Q 3.2685198419744315 1.9548954545454544 3.2562471147017042 1.9426227272727272 Q 3.243974387428977 1.9303499999999998 3.2252243874289768 1.923190909090909 Q 3.206474387428977 1.9160318181818181 3.1744289328835222 1.9078499999999998 Q 3.1328380237926132 1.896940909090909 3.1069289328835223 1.886031818181818 Q 3.0810198419744315 1.875122727272727 3.0629516601562496 1.8536454545454544 Q 3.044883478338068 1.8321681818181816 3.044883478338068 1.796031818181818 Q 3.044883478338068 1.7687590909090907 3.0612471147017044 1.7455772727272727 Q 3.0776107510653405 1.7223954545454545 3.107610751065341 1.7087590909090908 Q 3.1376107510653406 1.6951227272727272 3.1757925692471587 1.6951227272727272 Q 3.2357925692471587 1.6951227272727272 3.272610751065341 1.7254636363636362 Q 3.3094289328835225 1.7558045454545455 3.312156205610795 1.8089863636363634 L 3.2644289328835225 1.8089863636363634 Q 3.262383478338068 1.7762590909090907 3.2388607510653404 1.7561454545454545 Q 3.2153380237926132 1.736031818181818 3.1744289328835222 1.736031818181818 Q 3.1382925692471586 1.736031818181818 3.1157925692471586 1.7530772727272725 Q 3.0932925692471587 1.7701227272727271 3.0932925692471587 1.79535 Q 3.0932925692471587 1.8171681818181817 3.1065880237926136 1.8311454545454544 Q 3.119883478338068 1.845122727272727 3.139656205610795 1.8529636363636361 Q 3.1594289328835226 1.8608045454545454 3.1928380237926133 1.87035 Q 3.2330652965198863 1.8812590909090907 3.2569289328835223 1.8914863636363635 Q 3.2807925692471587 1.9017136363636362 3.2978380237926133 1.9214863636363635 Q 3.314883478338068 1.9412590909090908 3.3155652965198863 1.9739863636363635 Q 3.3155652965198863 2.0039863636363635 3.2992016601562497 2.0275090909090907 Q 3.282838023792613 2.051031818181818 3.2535198419744313 2.0646681818181816 Q 3.2242016601562495 2.0783045454545452 3.1860198419744314 2.0783045454545452 Q 3.1219289328835225 2.0783045454545452 3.0813607510653407 2.048645454545454 Z M 3.747803067294034 1.9051227272727271 L 3.4389394309303976 1.9051227272727271 Q 3.440984885475852 1.9473954545454544 3.459393976384943 1.9773954545454544 Q 3.477803067294034 2.0073954545454544 3.507803067294034 2.0227363636363633 Q 3.537803067294034 2.0380772727272727 3.5732576127485793 2.0380772727272727 Q 3.6196212491122157 2.0380772727272727 3.651325794566761 2.0155772727272727 Q 3.6830303400213067 1.9930772727272725 3.6932576127485794 1.9548954545454544 L 3.7437121582031248 1.9548954545454544 Q 3.730075794566761 2.009440909090909 3.6854167036576704 2.0438727272727273 Q 3.6407576127485797 2.0783045454545452 3.5732576127485793 2.0783045454545452 Q 3.5207576127485796 2.0783045454545452 3.4791667036576706 2.054781818181818 Q 3.437575794566761 2.031259090909091 3.414053067294034 1.9879636363636362 Q 3.3905303400213067 1.9446681818181817 3.3905303400213067 1.8867136363636363 Q 3.3905303400213067 1.8287590909090907 3.4137121582031247 1.7851227272727272 Q 3.436893976384943 1.7414863636363636 3.478484885475852 1.7183045454545454 Q 3.520075794566761 1.6951227272727272 3.5732576127485793 1.6951227272727272 Q 3.6264394309303976 1.6951227272727272 3.6663257945667613 1.7183045454545454 Q 3.706212158203125 1.7414863636363636 3.727689430930398 1.780690909090909 Q 3.7491667036576706 1.8198954545454544 3.7491667036576706 1.8676227272727273 Q 3.7491667036576706 1.8921681818181817 3.747803067294034 1.9051227272727271 Z M 3.684053067294034 1.79535 Q 3.66666670365767 1.7660318181818182 3.6366667036576703 1.751031818181818 Q 3.6066667036576705 1.736031818181818 3.571212158203125 1.736031818181818 Q 3.5180303400213067 1.736031818181818 3.4805303400213066 1.7701227272727271 Q 3.443030340021307 1.8042136363636363 3.4389394309303976 1.8662590909090908 L 3.7007576127485793 1.8662590909090908 Q 3.7014394309303977 1.8246681818181818 3.684053067294034 1.79535 Z M 4.165722323330966 1.7005772727272725 L 4.165722323330966 2.07285 L 4.117995050603693 2.07285 L 4.117995050603693 2.0073954545454544 Q 4.101631414240057 2.0421681818181816 4.067540505149148 2.0605772727272726 Q 4.033449596058238 2.0789863636363637 3.9911768687855114 2.0789863636363637 Q 3.9243586869673295 2.0789863636363637 3.882085959694602 2.0377363636363635 Q 3.839813232421875 1.9964863636363634 3.839813232421875 1.9180772727272726 L 3.839813232421875 1.7005772727272725 L 3.8868586869673294 1.7005772727272725 L 3.8868586869673294 1.9126227272727272 Q 3.8868586869673294 1.9733045454545453 3.9171995960582384 2.00535 Q 3.9475405051491474 2.0373954545454542 4.000040505149148 2.0373954545454542 Q 4.053904141512784 2.0373954545454542 4.085949596058239 2.0033045454545455 Q 4.117995050603693 1.9692136363636363 4.117995050603693 1.9030772727272727 L 4.117995050603693 1.7005772727272725 L 4.165722323330966 1.7005772727272725 Z M 4.377423872514204 1.71285 Q 4.409810236150568 1.693759090909091 4.456855690696022 1.693759090909091 L 4.456855690696022 1.743531818181818 L 4.443901145241477 1.743531818181818 Q 4.392082963423295 1.743531818181818 4.360719327059659 1.7714863636363636 Q 4.329355690696023 1.799440909090909 4.329355690696023 1.8648954545454544 L 4.329355690696023 2.07285 L 4.28162841796875 2.07285 L 4.28162841796875 1.7005772727272725 L 4.329355690696023 1.7005772727272725 L 4.329355690696023 1.7667136363636362 Q 4.345037508877841 1.731940909090909 4.377423872514204 1.71285 Z M 4.730255459872159 1.7854636363636363 Q 4.753437278053977 1.7421681818181818 4.794005459872159 1.7186454545454544 Q 4.834573641690341 1.6951227272727272 4.885710005326704 1.6951227272727272 Q 4.934800914417614 1.6951227272727272 4.974346368963068 1.7189863636363636 Q 5.013891823508523 1.7428499999999998 5.032300914417613 1.781031818181818 L 5.032300914417613 1.5683045454545455 L 5.080028187144886 1.5683045454545455 L 5.080028187144886 2.07285 L 5.032300914417613 2.07285 L 5.032300914417613 1.9896681818181816 Q 5.015255459872159 2.028531818181818 4.976391823508522 2.0534181818181816 Q 4.937528187144887 2.0783045454545452 4.885028187144886 2.0783045454545452 Q 4.833891823508522 2.0783045454545452 4.793323641690341 2.054440909090909 Q 4.752755459872159 2.0305772727272724 4.72991455078125 1.986940909090909 Q 4.707073641690341 1.9433045454545452 4.707073641690341 1.886031818181818 Q 4.707073641690341 1.8287590909090907 4.730255459872159 1.7854636363636363 Z M 5.013891823508523 1.8076227272727272 Q 4.995482732599432 1.773531818181818 4.963778187144886 1.7551227272727272 Q 4.932073641690341 1.7367136363636362 4.893891823508523 1.7367136363636362 Q 4.854346368963068 1.7367136363636362 4.822982732599431 1.754440909090909 Q 4.791619096235795 1.7721681818181816 4.773550914417614 1.8059181818181818 Q 4.7554827325994316 1.8396681818181817 4.7554827325994316 1.886031818181818 Q 4.7554827325994316 1.9317136363636362 4.773550914417614 1.9661454545454544 Q 4.791619096235795 2.0005772727272726 4.822982732599431 2.0186454545454544 Q 4.854346368963068 2.0367136363636362 4.893891823508523 2.0367136363636362 Q 4.932073641690341 2.0367136363636362 4.963778187144886 2.018304545454545 Q 4.995482732599432 1.9998954545454544 5.013891823508523 1.9658045454545454 Q 5.032300914417613 1.9317136363636362 5.032300914417613 1.8867136363636363 Q 5.032300914417613 1.8417136363636362 5.013891823508523 1.8076227272727272 Z M 5.53138350053267 1.9051227272727271 L 5.222519864169034 1.9051227272727271 Q 5.224565318714489 1.9473954545454544 5.24297440962358 1.9773954545454544 Q 5.261383500532671 2.0073954545454544 5.291383500532671 2.0227363636363633 Q 5.32138350053267 2.0380772727272727 5.3568380459872165 2.0380772727272727 Q 5.403201682350852 2.0380772727272727 5.434906227805398 2.0155772727272727 Q 5.466610773259943 1.9930772727272725 5.476838045987217 1.9548954545454544 L 5.527292591441761 1.9548954545454544 Q 5.513656227805398 2.009440909090909 5.468997136896307 2.0438727272727273 Q 5.424338045987216 2.0783045454545452 5.3568380459872165 2.0783045454545452 Q 5.304338045987216 2.0783045454545452 5.262747136896307 2.054781818181818 Q 5.221156227805398 2.031259090909091 5.197633500532671 1.9879636363636362 Q 5.174110773259944 1.9446681818181817 5.174110773259944 1.8867136363636363 Q 5.174110773259944 1.8287590909090907 5.197292591441761 1.7851227272727272 Q 5.22047440962358 1.7414863636363636 5.262065318714489 1.7183045454545454 Q 5.303656227805398 1.6951227272727272 5.3568380459872165 1.6951227272727272 Q 5.410019864169034 1.6951227272727272 5.449906227805398 1.7183045454545454 Q 5.489792591441762 1.7414863636363636 5.5112698641690345 1.780690909090909 Q 5.532747136896307 1.8198954545454544 5.532747136896307 1.8676227272727273 Q 5.532747136896307 1.8921681818181817 5.53138350053267 1.9051227272727271 Z M 5.467633500532671 1.79535 Q 5.450247136896307 1.7660318181818182 5.420247136896307 1.751031818181818 Q 5.390247136896307 1.736031818181818 5.354792591441761 1.736031818181818 Q 5.301610773259943 1.736031818181818 5.264110773259944 1.7701227272727271 Q 5.226610773259943 1.8042136363636363 5.222519864169034 1.8662590909090908 L 5.484338045987216 1.8662590909090908 Q 5.485019864169034 1.8246681818181818 5.467633500532671 1.79535 Z M 5.65032548384233 2.048645454545454 Q 5.609757302024148 2.0189863636363636 5.6049845747514215 1.9678499999999999 L 5.65407548384233 1.9678499999999999 Q 5.657484574751421 1.9992136363636361 5.683734574751421 2.0186454545454544 Q 5.709984574751421 2.0380772727272727 5.7543027565696026 2.0380772727272727 Q 5.793166392933239 2.0380772727272727 5.81532548384233 2.0196681818181816 Q 5.8374845747514215 2.0012590909090906 5.8374845747514215 1.9739863636363635 Q 5.8374845747514215 1.9548954545454544 5.825211847478694 1.9426227272727272 Q 5.812939120205966 1.9303499999999998 5.794189120205966 1.923190909090909 Q 5.7754391202059665 1.9160318181818181 5.743393665660512 1.9078499999999998 Q 5.701802756569603 1.896940909090909 5.675893665660512 1.886031818181818 Q 5.6499845747514215 1.875122727272727 5.631916392933239 1.8536454545454544 Q 5.613848211115058 1.8321681818181816 5.613848211115058 1.796031818181818 Q 5.613848211115058 1.7687590909090907 5.6302118474786935 1.7455772727272727 Q 5.64657548384233 1.7223954545454545 5.67657548384233 1.7087590909090908 Q 5.706575483842331 1.6951227272727272 5.744757302024149 1.6951227272727272 Q 5.804757302024148 1.6951227272727272 5.84157548384233 1.7254636363636362 Q 5.878393665660512 1.7558045454545455 5.8811209383877845 1.8089863636363634 L 5.833393665660512 1.8089863636363634 Q 5.831348211115057 1.7762590909090907 5.80782548384233 1.7561454545454545 Q 5.784302756569603 1.736031818181818 5.743393665660512 1.736031818181818 Q 5.707257302024148 1.736031818181818 5.684757302024148 1.7530772727272725 Q 5.662257302024148 1.7701227272727271 5.662257302024148 1.79535 Q 5.662257302024148 1.8171681818181817 5.675552756569603 1.8311454545454544 Q 5.688848211115057 1.845122727272727 5.708620938387785 1.8529636363636361 Q 5.728393665660512 1.8608045454545454 5.761802756569603 1.87035 Q 5.802030029296875 1.8812590909090907 5.825893665660512 1.8914863636363635 Q 5.849757302024148 1.9017136363636362 5.866802756569603 1.9214863636363635 Q 5.883848211115057 1.9412590909090908 5.884530029296876 1.9739863636363635 Q 5.884530029296876 2.0039863636363635 5.868166392933239 2.0275090909090907 Q 5.851802756569603 2.051031818181818 5.822484574751421 2.0646681818181816 Q 5.793166392933239 2.0783045454545452 5.754984574751421 2.0783045454545452 Q 5.690893665660512 2.0783045454545452 5.65032548384233 2.048645454545454 Z M 6.176304265802558 1.7854636363636363 Q 6.199486083984376 1.7421681818181818 6.240054265802558 1.7186454545454544 Q 6.28062244762074 1.6951227272727272 6.331758811257103 1.6951227272727272 Q 6.380849720348013 1.6951227272727272 6.420395174893467 1.7189863636363636 Q 6.459940629438922 1.7428499999999998 6.478349720348012 1.781031818181818 L 6.478349720348012 1.5683045454545455 L 6.526076993075285 1.5683045454545455 L 6.526076993075285 2.07285 L 6.478349720348012 2.07285 L 6.478349720348012 1.9896681818181816 Q 6.461304265802558 2.028531818181818 6.422440629438921 2.0534181818181816 Q 6.383576993075286 2.0783045454545452 6.3310769930752855 2.0783045454545452 Q 6.279940629438921 2.0783045454545452 6.23937244762074 2.054440909090909 Q 6.198804265802558 2.0305772727272724 6.175963356711649 1.986940909090909 Q 6.15312244762074 1.9433045454545452 6.15312244762074 1.886031818181818 Q 6.15312244762074 1.8287590909090907 6.176304265802558 1.7854636363636363 Z M 6.459940629438922 1.8076227272727272 Q 6.441531538529831 1.773531818181818 6.409826993075285 1.7551227272727272 Q 6.37812244762074 1.7367136363636362 6.339940629438922 1.7367136363636362 Q 6.300395174893467 1.7367136363636362 6.2690315385298305 1.754440909090909 Q 6.237667902166194 1.7721681818181816 6.219599720348013 1.8059181818181818 Q 6.201531538529831 1.8396681818181817 6.201531538529831 1.886031818181818 Q 6.201531538529831 1.9317136363636362 6.219599720348013 1.9661454545454544 Q 6.237667902166194 2.0005772727272726 6.2690315385298305 2.0186454545454544 Q 6.300395174893467 2.0367136363636362 6.339940629438922 2.0367136363636362 Q 6.37812244762074 2.0367136363636362 6.409826993075285 2.018304545454545 Q 6.441531538529831 1.9998954545454544 6.459940629438922 1.9658045454545454 Q 6.478349720348012 1.9317136363636362 6.478349720348012 1.8867136363636363 Q 6.478349720348012 1.8417136363636362 6.459940629438922 1.8076227272727272 Z M 6.710500488281252 2.054781818181818 Q 6.668568670099433 2.031259090909091 6.644364124644888 1.9879636363636362 Q 6.620159579190343 1.9446681818181817 6.620159579190343 1.8867136363636363 Q 6.620159579190343 1.8287590909090907 6.644705033735797 1.7854636363636363 Q 6.669250488281252 1.7421681818181818 6.711523215553979 1.7186454545454544 Q 6.753795942826706 1.6951227272727272 6.806295942826706 1.6951227272727272 Q 6.858795942826706 1.6951227272727272 6.901409579190343 1.7186454545454544 Q 6.944023215553979 1.7421681818181818 6.968227761008524 1.7854636363636363 Q 6.99243230646307 1.8287590909090907 6.99243230646307 1.8867136363636363 Q 6.99243230646307 1.9439863636363635 6.967886851917616 1.9876227272727272 Q 6.94334139737216 2.031259090909091 6.900386851917615 2.054781818181818 Q 6.857432306463069 2.0783045454545452 6.80493230646307 2.0783045454545452 Q 6.75243230646307 2.0783045454545452 6.710500488281252 2.054781818181818 Z M 6.8731141246448875 2.020009090909091 Q 6.904477761008525 2.0033045454545455 6.923909579190342 1.9695545454545453 Q 6.94334139737216 1.9358045454545454 6.94334139737216 1.8867136363636363 Q 6.94334139737216 1.8376227272727272 6.924250488281252 1.803872727272727 Q 6.905159579190342 1.7701227272727271 6.873795942826706 1.7534181818181818 Q 6.84243230646307 1.7367136363636362 6.805614124644888 1.7367136363636362 Q 6.768795942826706 1.7367136363636362 6.73743230646307 1.7534181818181818 Q 6.706068670099433 1.7701227272727271 6.687318670099433 1.803872727272727 Q 6.668568670099433 1.8376227272727272 6.668568670099433 1.8867136363636363 Q 6.668568670099433 1.9358045454545454 6.687318670099433 1.9695545454545453 Q 6.706068670099433 2.0033045454545455 6.7370913973721605 2.020009090909091 Q 6.768114124644888 2.0367136363636362 6.80493230646307 2.0367136363636362 Q 6.841750488281251 2.0367136363636362 6.8731141246448875 2.020009090909091 Z M 7.370137606534092 1.7350090909090907 Q 7.41241033380682 1.7762590909090907 7.41241033380682 1.8546681818181816 L 7.41241033380682 2.07285 L 7.365364879261365 2.07285 L 7.365364879261365 1.8601227272727272 Q 7.365364879261365 1.799440909090909 7.335023970170456 1.7673954545454544 Q 7.304683061079547 1.73535 7.252183061079547 1.73535 Q 7.19831942471591 1.73535 7.166273970170456 1.769440909090909 Q 7.134228515625002 1.803531818181818 7.134228515625002 1.8696681818181817 L 7.134228515625002 2.07285 L 7.086501242897729 2.07285 L 7.086501242897729 1.7005772727272725 L 7.134228515625002 1.7005772727272725 L 7.134228515625002 1.7639863636363635 Q 7.151955788352274 1.7298954545454546 7.185364879261365 1.7118272727272728 Q 7.218773970170456 1.693759090909091 7.2610466974431835 1.693759090909091 Q 7.327864879261365 1.693759090909091 7.370137606534092 1.7350090909090907 Z M 7.808543701171876 1.7350090909090907 Q 7.850816428444604 1.7762590909090907 7.850816428444604 1.8546681818181816 L 7.850816428444604 2.07285 L 7.803770973899149 2.07285 L 7.803770973899149 1.8601227272727272 Q 7.803770973899149 1.799440909090909 7.77343006480824 1.7673954545454544 Q 7.743089155717331 1.73535 7.690589155717332 1.73535 Q 7.6367255193536945 1.73535 7.604680064808241 1.769440909090909 Q 7.572634610262786 1.803531818181818 7.572634610262786 1.8696681818181817 L 7.572634610262786 2.07285 L 7.524907337535513 2.07285 L 7.524907337535513 1.7005772727272725 L 7.572634610262786 1.7005772727272725 L 7.572634610262786 1.7639863636363635 Q 7.5903618829900585 1.7298954545454546 7.623770973899149 1.7118272727272728 Q 7.65718006480824 1.693759090909091 7.699452792080968 1.693759090909091 Q 7.766270973899149 1.693759090909091 7.808543701171876 1.7350090909090907 Z M 8.298767977627843 1.9051227272727271 L 7.989904341264206 1.9051227272727271 Q 7.991949795809661 1.9473954545454544 8.010358886718752 1.9773954545454544 Q 8.028767977627842 2.0073954545454544 8.058767977627843 2.0227363636363633 Q 8.088767977627842 2.0380772727272727 8.124222523082388 2.0380772727272727 Q 8.170586159446025 2.0380772727272727 8.20229070490057 2.0155772727272727 Q 8.233995250355115 1.9930772727272725 8.244222523082389 1.9548954545454544 L 8.294677068536934 1.9548954545454544 Q 8.28104070490057 2.009440909090909 8.23638161399148 2.0438727272727273 Q 8.191722523082388 2.0783045454545452 8.124222523082388 2.0783045454545452 Q 8.071722523082387 2.0783045454545452 8.030131613991479 2.054781818181818 Q 7.98854070490057 2.031259090909091 7.965017977627843 1.9879636363636362 Q 7.941495250355116 1.9446681818181817 7.941495250355116 1.8867136363636363 Q 7.941495250355116 1.8287590909090907 7.9646770685369335 1.7851227272727272 Q 7.987858886718752 1.7414863636363636 8.029449795809661 1.7183045454545454 Q 8.07104070490057 1.6951227272727272 8.124222523082388 1.6951227272727272 Q 8.177404341264207 1.6951227272727272 8.21729070490057 1.7183045454545454 Q 8.257177068536933 1.7414863636363636 8.278654341264206 1.780690909090909 Q 8.300131613991478 1.8198954545454544 8.300131613991478 1.8676227272727273 Q 8.300131613991478 1.8921681818181817 8.298767977627843 1.9051227272727271 Z M 8.235017977627843 1.79535 Q 8.217631613991479 1.7660318181818182 8.18763161399148 1.751031818181818 Q 8.157631613991478 1.736031818181818 8.122177068536933 1.736031818181818 Q 8.068995250355115 1.736031818181818 8.031495250355116 1.7701227272727271 Q 7.993995250355115 1.8042136363636363 7.989904341264206 1.8662590909090908 L 8.251722523082389 1.8662590909090908 Q 8.252404341264207 1.8246681818181818 8.235017977627843 1.79535 Z M 8.18354070490057 1.5908045454545454 L 8.043767977627843 1.671940909090909 L 8.043767977627843 1.6351227272727271 L 8.18354070490057 1.54785 L 8.18354070490057 1.5908045454545454 Z M 8.729641779119321 1.9051227272727271 L 8.420778142755685 1.9051227272727271 Q 8.42282359730114 1.9473954545454544 8.44123268821023 1.9773954545454544 Q 8.45964177911932 2.0073954545454544 8.48964177911932 2.0227363636363633 Q 8.51964177911932 2.0380772727272727 8.555096324573865 2.0380772727272727 Q 8.601459960937502 2.0380772727272727 8.633164506392047 2.0155772727272727 Q 8.664869051846594 1.9930772727272725 8.675096324573866 1.9548954545454544 L 8.725550870028412 1.9548954545454544 Q 8.711914506392048 2.009440909090909 8.667255415482957 2.0438727272727273 Q 8.622596324573866 2.0783045454545452 8.555096324573865 2.0783045454545452 Q 8.502596324573865 2.0783045454545452 8.461005415482957 2.054781818181818 Q 8.419414506392048 2.031259090909091 8.39589177911932 1.9879636363636362 Q 8.372369051846594 1.9446681818181817 8.372369051846594 1.8867136363636363 Q 8.372369051846594 1.8287590909090907 8.395550870028412 1.7851227272727272 Q 8.418732688210229 1.7414863636363636 8.460323597301139 1.7183045454545454 Q 8.501914506392048 1.6951227272727272 8.555096324573865 1.6951227272727272 Q 8.608278142755685 1.6951227272727272 8.648164506392048 1.7183045454545454 Q 8.68805087002841 1.7414863636363636 8.709528142755683 1.780690909090909 Q 8.731005415482956 1.8198954545454544 8.731005415482956 1.8676227272727273 Q 8.731005415482956 1.8921681818181817 8.729641779119321 1.9051227272727271 Z M 8.66589177911932 1.79535 Q 8.648505415482957 1.7660318181818182 8.618505415482957 1.751031818181818 Q 8.588505415482956 1.736031818181818 8.553050870028411 1.736031818181818 Q 8.499869051846593 1.736031818181818 8.462369051846593 1.7701227272727271 Q 8.424869051846594 1.8042136363636363 8.420778142755685 1.8662590909090908 L 8.682596324573867 1.8662590909090908 Q 8.683278142755684 1.8246681818181818 8.66589177911932 1.79535 Z M 8.84858376242898 2.048645454545454 Q 8.808015580610798 2.0189863636363636 8.803242853338071 1.9678499999999999 L 8.85233376242898 1.9678499999999999 Q 8.855742853338072 1.9992136363636361 8.88199285333807 2.0186454545454544 Q 8.908242853338072 2.0380772727272727 8.952561035156252 2.0380772727272727 Q 8.991424671519889 2.0380772727272727 9.01358376242898 2.0196681818181816 Q 9.035742853338071 2.0012590909090906 9.035742853338071 1.9739863636363635 Q 9.035742853338071 1.9548954545454544 9.023470126065344 1.9426227272727272 Q 9.011197398792616 1.9303499999999998 8.992447398792617 1.923190909090909 Q 8.973697398792616 1.9160318181818181 8.941651944247162 1.9078499999999998 Q 8.900061035156252 1.896940909090909 8.874151944247162 1.886031818181818 Q 8.848242853338071 1.875122727272727 8.83017467151989 1.8536454545454544 Q 8.812106489701707 1.8321681818181816 8.812106489701707 1.796031818181818 Q 8.812106489701707 1.7687590909090907 8.828470126065344 1.7455772727272727 Q 8.84483376242898 1.7223954545454545 8.87483376242898 1.7087590909090908 Q 8.90483376242898 1.6951227272727272 8.943015580610798 1.6951227272727272 Q 9.003015580610798 1.6951227272727272 9.03983376242898 1.7254636363636362 Q 9.076651944247162 1.7558045454545455 9.079379216974434 1.8089863636363634 L 9.031651944247162 1.8089863636363634 Q 9.029606489701708 1.7762590909090907 9.00608376242898 1.7561454545454545 Q 8.982561035156253 1.736031818181818 8.941651944247162 1.736031818181818 Q 8.905515580610798 1.736031818181818 8.883015580610799 1.7530772727272725 Q 8.860515580610798 1.7701227272727271 8.860515580610798 1.79535 Q 8.860515580610798 1.8171681818181817 8.873811035156253 1.8311454545454544 Q 8.887106489701708 1.845122727272727 8.906879216974435 1.8529636363636361 Q 8.926651944247162 1.8608045454545454 8.960061035156253 1.87035 Q 9.000288307883526 1.8812590909090907 9.024151944247162 1.8914863636363635 Q 9.048015580610798 1.9017136363636362 9.065061035156253 1.9214863636363635 Q 9.082106489701708 1.9412590909090908 9.082788307883526 1.9739863636363635 Q 9.082788307883526 2.0039863636363635 9.06642467151989 2.0275090909090907 Q 9.050061035156252 2.051031818181818 9.02074285333807 2.0646681818181816 Q 8.991424671519889 2.0783045454545452 8.953242853338072 2.0783045454545452 Q 8.889151944247162 2.0783045454545452 8.84858376242898 2.048645454545454 Z M 9.374562544389207 1.7854636363636363 Q 9.397744362571023 1.7421681818181818 9.438312544389206 1.7186454545454544 Q 9.478880726207388 1.6951227272727272 9.530017089843751 1.6951227272727272 Q 9.57910799893466 1.6951227272727272 9.618653453480116 1.7189863636363636 Q 9.65819890802557 1.7428499999999998 9.67660799893466 1.781031818181818 L 9.67660799893466 1.5683045454545455 L 9.724335271661934 1.5683045454545455 L 9.724335271661934 2.07285 L 9.67660799893466 2.07285 L 9.67660799893466 1.9896681818181816 Q 9.659562544389207 2.028531818181818 9.62069890802557 2.0534181818181816 Q 9.581835271661934 2.0783045454545452 9.529335271661934 2.0783045454545452 Q 9.47819890802557 2.0783045454545452 9.437630726207388 2.054440909090909 Q 9.397062544389206 2.0305772727272724 9.374221635298296 1.986940909090909 Q 9.351380726207388 1.9433045454545452 9.351380726207388 1.886031818181818 Q 9.351380726207388 1.8287590909090907 9.374562544389207 1.7854636363636363 Z M 9.65819890802557 1.8076227272727272 Q 9.639789817116478 1.773531818181818 9.608085271661933 1.7551227272727272 Q 9.576380726207388 1.7367136363636362 9.538198908025569 1.7367136363636362 Q 9.498653453480115 1.7367136363636362 9.467289817116479 1.754440909090909 Q 9.435926180752842 1.7721681818181816 9.417857998934661 1.8059181818181818 Q 9.39978981711648 1.8396681818181817 9.39978981711648 1.886031818181818 Q 9.39978981711648 1.9317136363636362 9.417857998934661 1.9661454545454544 Q 9.435926180752842 2.0005772727272726 9.467289817116479 2.0186454545454544 Q 9.498653453480115 2.0367136363636362 9.538198908025569 2.0367136363636362 Q 9.576380726207388 2.0367136363636362 9.608085271661933 2.018304545454545 Q 9.639789817116478 1.9998954545454544 9.65819890802557 1.9658045454545454 Q 9.67660799893466 1.9317136363636362 9.67660799893466 1.8867136363636363 Q 9.67660799893466 1.8417136363636362 9.65819890802557 1.8076227272727272 Z M 10.175690585049718 1.9051227272727271 L 9.866826948686082 1.9051227272727271 Q 9.868872403231537 1.9473954545454544 9.887281494140627 1.9773954545454544 Q 9.905690585049717 2.0073954545454544 9.935690585049718 2.0227363636363633 Q 9.965690585049717 2.0380772727272727 10.001145130504263 2.0380772727272727 Q 10.0475087668679 2.0380772727272727 10.079213312322445 2.0155772727272727 Q 10.11091785777699 1.9930772727272725 10.121145130504264 1.9548954545454544 L 10.17159967595881 1.9548954545454544 Q 10.157963312322446 2.009440909090909 10.113304221413355 2.0438727272727273 Q 10.068645130504263 2.0783045454545452 10.001145130504263 2.0783045454545452 Q 9.948645130504262 2.0783045454545452 9.907054221413354 2.054781818181818 Q 9.865463312322445 2.031259090909091 9.841940585049718 1.9879636363636362 Q 9.818417857776991 1.9446681818181817 9.818417857776991 1.8867136363636363 Q 9.818417857776991 1.8287590909090907 9.84159967595881 1.7851227272727272 Q 9.864781494140626 1.7414863636363636 9.906372403231536 1.7183045454545454 Q 9.947963312322445 1.6951227272727272 10.001145130504263 1.6951227272727272 Q 10.054326948686082 1.6951227272727272 10.094213312322445 1.7183045454545454 Q 10.134099675958808 1.7414863636363636 10.15557694868608 1.780690909090909 Q 10.177054221413353 1.8198954545454544 10.177054221413353 1.8676227272727273 Q 10.177054221413353 1.8921681818181817 10.175690585049718 1.9051227272727271 Z M 10.111940585049718 1.79535 Q 10.094554221413354 1.7660318181818182 10.064554221413355 1.751031818181818 Q 10.034554221413353 1.736031818181818 9.999099675958808 1.736031818181818 Q 9.94591785777699 1.736031818181818 9.90841785777699 1.7701227272727271 Q 9.870917857776991 1.8042136363636363 9.866826948686082 1.8662590909090908 L 10.128645130504264 1.8662590909090908 Q 10.129326948686082 1.8246681818181818 10.111940585049718 1.79535 Z M 10.512464488636365 1.5683045454545455 L 10.512464488636365 2.07285 L 10.464737215909093 2.07285 L 10.464737215909093 1.5683045454545455 L 10.512464488636365 1.5683045454545455 Z M 10.628675537109377 1.7854636363636363 Q 10.651516446200286 1.7421681818181818 10.692084628018469 1.7186454545454544 Q 10.732652809836651 1.6951227272727272 10.783789173473014 1.6951227272727272 Q 10.836970991654832 1.6951227272727272 10.87549371892756 1.7196681818181818 Q 10.914016446200288 1.7442136363636362 10.93106190074574 1.7823954545454543 L 10.93106190074574 1.7005772727272725 L 10.978789173473015 1.7005772727272725 L 10.978789173473015 2.07285 L 10.93106190074574 2.07285 L 10.93106190074574 1.9903499999999998 Q 10.913334628018468 2.028531818181818 10.87481190074574 2.0534181818181816 Q 10.836289173473014 2.0783045454545452 10.783107355291197 2.0783045454545452 Q 10.732652809836651 2.0783045454545452 10.692084628018469 2.054440909090909 Q 10.651516446200286 2.0305772727272724 10.628675537109377 1.986940909090909 Q 10.605834628018469 1.9433045454545452 10.605834628018469 1.886031818181818 Q 10.605834628018469 1.8287590909090907 10.628675537109377 1.7854636363636363 Z M 10.91265280983665 1.8076227272727272 Q 10.894243718927559 1.773531818181818 10.862539173473014 1.7551227272727272 Q 10.830834628018469 1.7367136363636362 10.79265280983665 1.7367136363636362 Q 10.753107355291196 1.7367136363636362 10.72174371892756 1.754440909090909 Q 10.690380082563923 1.7721681818181816 10.672311900745742 1.8059181818181818 Q 10.65424371892756 1.8396681818181817 10.65424371892756 1.886031818181818 Q 10.65424371892756 1.9317136363636362 10.672311900745742 1.9661454545454544 Q 10.690380082563923 2.0005772727272726 10.72174371892756 2.0186454545454544 Q 10.753107355291196 2.0367136363636362 10.79265280983665 2.0367136363636362 Q 10.830834628018469 2.0367136363636362 10.862539173473014 2.018304545454545 Q 10.894243718927559 1.9998954545454544 10.91265280983665 1.9658045454545454 Q 10.93106190074574 1.9317136363636362 10.93106190074574 1.8867136363636363 Q 10.93106190074574 1.8417136363636362 10.91265280983665 1.8076227272727272 Z M 11.297180952592331 1.7084181818181818 Q 11.32786277077415 1.65285 11.381044588955968 1.6218272727272727 Q 11.434226407137787 1.5908045454545454 11.499680952592332 1.5908045454545454 Q 11.57945367986506 1.5908045454545454 11.636385498046877 1.6286454545454545 Q 11.693317316228695 1.6664863636363636 11.719226407137787 1.73535 L 11.663317316228696 1.73535 Q 11.64286277077415 1.686940909090909 11.600930952592332 1.6596681818181818 Q 11.558999134410513 1.6323954545454544 11.499680952592332 1.6323954545454544 Q 11.447180952592332 1.6323954545454544 11.405249134410514 1.6569409090909089 Q 11.363317316228695 1.6814863636363635 11.33945367986506 1.7275090909090909 Q 11.315590043501423 1.773531818181818 11.315590043501423 1.8342136363636363 Q 11.315590043501423 1.8948954545454544 11.33945367986506 1.9405772727272725 Q 11.363317316228695 1.9862590909090907 11.405249134410514 2.0108045454545453 Q 11.447180952592332 2.0353499999999998 11.499680952592332 2.0353499999999998 Q 11.558999134410513 2.0353499999999998 11.600930952592332 2.0084181818181817 Q 11.64286277077415 1.9814863636363635 11.663317316228696 1.9337590909090907 L 11.719226407137787 1.9337590909090907 Q 11.693317316228695 2.001940909090909 11.636044588955968 2.039440909090909 Q 11.578771861683242 2.076940909090909 11.499680952592332 2.076940909090909 Q 11.434226407137787 2.076940909090909 11.381044588955968 2.0459181818181817 Q 11.32786277077415 2.0148954545454543 11.297180952592331 1.9596681818181816 Q 11.266499134410514 1.904440909090909 11.266499134410514 1.8342136363636363 Q 11.266499134410514 1.7639863636363635 11.297180952592331 1.7084181818181818 Z M 12.180132834694605 2.07285 L 12.132405561967332 2.07285 L 11.868541925603695 1.671940909090909 L 11.868541925603695 2.07285 L 11.820814652876424 2.07285 L 11.820814652876424 1.5962590909090908 L 11.868541925603695 1.5962590909090908 L 12.132405561967332 1.9964863636363634 L 12.132405561967332 1.5962590909090908 L 12.180132834694605 1.5962590909090908 L 12.180132834694605 2.07285 Z M 12.343069735440343 1.5962590909090908 L 12.343069735440343 2.07285 L 12.295342462713071 2.07285 L 12.295342462713071 1.5962590909090908 L 12.343069735440343 1.5962590909090908 Z M 12.505985329367899 2.0339863636363633 L 12.677121693004263 2.0339863636363633 L 12.677121693004263 2.07285 L 12.458258056640627 2.07285 L 12.458258056640627 1.5962590909090908 L 12.505985329367899 1.5962590909090908 L 12.505985329367899 2.0339863636363633 Z" fill="#67a97b" fill-rule="nonzero"></path></g><g clip-path="url(&quot;#SvgjsClipPath1023&quot;)"><path d=" M -1.1193459848663783 0.4537547522582336 L -1.7747501044113005 1.1207962912916611 L -1.1193459848663783 1.7878378303250886 L -0.463941865321456 1.1207962912916611 Z M -1.8386919697327564 1.1207962912916611 L -1.1193459848663783 1.8529306492223305 L -0.3999999999999999 1.1207962912916611 L -1.1193459848663783 0.3886619333609916 Z" fill="#67a97b" transform="matrix(1,0,0,1,0,0)" fill-rule="evenodd"></path><path d=" M -1.7907355707416646 0.68154764746592 L -1.135331451196742 0.014490122966162186 L -0.4799273316518198 0.68154764746592 L -0.5758401296340034 0.7791549048791224 L -0.5438691969732756 0.8117013143277434 L -0.41598546633036393 0.68154764746592 L -1.135331451196742 -0.050586710464749496 L -1.8546774360631204 0.68154764746592 L -1.7108082390898447 0.8279745190520538 L -1.6788373064291169 0.7954281096034328 Z" fill="#67a97b" transform="matrix(1,0,0,1,0,0)" fill-rule="evenodd"></path><path d=" M -1.1193459848663783 0.4537547522582336 L -1.566939042116569 0.9093405426736064 L -1.1193459848663783 1.3649263330889794 L -0.6717529276161873 0.9093405426736064 Z M -1.630880907438025 0.9093405426736064 L -1.1193459848663783 1.4299232391882393 L -0.6078110622947315 0.9093085717409458 L -1.1193459848663783 0.3886779188273218 Z" fill="#67a97b" transform="matrix(1,0,0,1,0,0)" fill-rule="evenodd"></path><path d=" M -1.141294030137968 2.123436710464749 L -1.141294030137968 1.3871781022208458 L -1.0960711458893684 1.3871781022208458 L -1.0960711458893684 2.123436710464749 Z" fill="#67a97b" transform="matrix(1,0,0,1,0,0)" fill-rule="nonzero"></path></g></g><defs><clipPath id="SvgjsClipPath1023"><path d=" M -1.8546774360631204 -0.050586710464749496 h 1.4546774360631205 v 2.174023420929499 h -1.4546774360631205 Z"></path></clipPath></defs></svg>